<?xml version="1.0" encoding="UTF-8" standalone="no"?>
<svg
   xmlns:dc="http://purl.org/dc/elements/1.1/"
   xmlns:cc="http://creativecommons.org/ns#"
   xmlns:rdf="http://www.w3.org/1999/02/22-rdf-syntax-ns#"
   xmlns:svg="http://www.w3.org/2000/svg"
   xmlns="http://www.w3.org/2000/svg"
   xmlns:sodipodi="http://sodipodi.sourceforge.net/DTD/sodipodi-0.dtd"
   xmlns:inkscape="http://www.inkscape.org/namespaces/inkscape"
   version="1.0"
   width="400.000000pt"
   height="400.000000pt"
   viewBox="0 0 400.000000 400.000000"
   preserveAspectRatio="xMidYMid meet"
   id="svg4928"
   inkscape:version="0.91 r13725"
   sodipodi:docname="unum-logo-2.svg">
  <defs
     id="defs4940" />
  <sodipodi:namedview
     pagecolor="#ffffff"
     bordercolor="#666666"
     borderopacity="1"
     objecttolerance="10"
     gridtolerance="10"
     guidetolerance="10"
     inkscape:pageopacity="0"
     inkscape:pageshadow="2"
     inkscape:window-width="1600"
     inkscape:window-height="841"
     id="namedview4938"
     showgrid="false"
     inkscape:zoom="0.472"
     inkscape:cx="20.127119"
     inkscape:cy="250"
     inkscape:window-x="0"
     inkscape:window-y="0"
     inkscape:window-maximized="1"
     inkscape:current-layer="svg4928" />
  <metadata
     id="metadata4930">
Created by potrace 1.15, written by Peter Selinger 2001-2017
<rdf:RDF>
  <cc:Work
     rdf:about="">
    <dc:format>image/svg+xml</dc:format>
    <dc:type
       rdf:resource="http://purl.org/dc/dcmitype/StillImage" />
    <dc:title></dc:title>
  </cc:Work>
</rdf:RDF>
</metadata>
  <g
     transform="matrix(0.1,0,0,-0.1,0,400)"
     id="g4932"
     style="fill:#5fc9f3;stroke:none">
    <path
       d="M 1713,3974 C 1155,3893 650,3572 337,3100 215,2916 109,2673 60,2465 -8,2177 -8,1823 60,1535 172,1056 482,614 899,337 1230,118 1593,10 2000,10 c 326,0 579,57 865,194 409,198 734,522 930,931 138,286 195,540 195,865 0,326 -57,579 -194,865 -259,538 -758,941 -1331,1075 -213,50 -541,65 -752,34 z m 427,-164 C 3230,3715 3996,2702 3779,1642 3579,663 2615,22 1642,221 663,421 22,1385 221,2358 c 160,784 825,1380 1620,1451 135,12 170,12 299,1 z"
       id="path4934"
       inkscape:connector-curvature="0" />
  </g>
  <text
     xml:space="preserve"
     style="font-style:normal;font-weight:normal;font-size:336.11190796px;line-height:125%;font-family:sans-serif;letter-spacing:0px;word-spacing:0px;fill:#5fc9f3;fill-opacity:1;stroke:none;stroke-width:1px;stroke-linecap:butt;stroke-linejoin:miter;stroke-opacity:1"
     x="56.794075"
     y="362.77051"
     id="text6129"
     sodipodi:linespacing="125%"
     transform="scale(1.1162075,0.89589079)"><tspan
       sodipodi:role="line"
       id="tspan6131"
       x="56.794075"
       y="362.77051">U</tspan></text>
</svg>
