<?xml version="1.0" encoding="iso-8859-1"?>
<!-- Generator: Adobe Illustrator 19.1.0, SVG Export Plug-In . SVG Version: 6.00 Build 0)  -->
<svg version="1.1" id="Capa_1" xmlns="http://www.w3.org/2000/svg" xmlns:xlink="http://www.w3.org/1999/xlink" x="0px" y="0px"
	 viewBox="0 0 320.635 320.635" style="enable-background:new 0 0 320.635 320.635;" xml:space="preserve">
<g>
	<path d="M294.535,0H26.106C15.476,0,6.825,8.651,6.825,19.281v268.423c0,10.63,8.651,19.28,19.281,19.28h15.527v7.224
		c0,3.554,2.873,6.427,6.427,6.427h37.488c3.548,0,6.427-2.873,6.427-6.427v-7.224h136.679v7.224c0,3.554,2.873,6.427,6.427,6.427
		h37.481c3.554,0,6.427-2.873,6.427-6.427v-7.224h15.54c10.63,0,19.28-8.651,19.28-19.28V19.281C313.816,8.651,305.165,0,294.535,0z
		 M300.962,287.704c0,3.548-2.886,6.427-6.427,6.427H26.106c-3.548,0-6.427-2.879-6.427-6.427V19.281
		c0-3.541,2.879-6.427,6.427-6.427h268.423c3.541,0,6.427,2.886,6.427,6.427v268.423H300.962z M161.121,91.897
		c-34.017,0-61.588,27.578-61.588,61.588c0,34.024,27.571,61.588,61.588,61.588s61.588-27.565,61.588-61.588
		C222.709,119.475,195.144,91.897,161.121,91.897z M204.27,124.989l-10.932,10.926c2.847,5.225,4.467,11.208,4.467,17.571
		c0,20.264-16.421,36.697-36.684,36.697c-20.257,0-36.691-16.433-36.691-36.697c0-20.257,16.433-36.684,36.691-36.684
		c9.094,0,17.391,3.323,23.792,8.792l9.981-9.974c2.513-2.513,6.575-2.513,9.088,0l0.289,0.283
		C206.777,118.408,206.777,122.476,204.27,124.989z"/>
</g>
<g>
</g>
<g>
</g>
<g>
</g>
<g>
</g>
<g>
</g>
<g>
</g>
<g>
</g>
<g>
</g>
<g>
</g>
<g>
</g>
<g>
</g>
<g>
</g>
<g>
</g>
<g>
</g>
<g>
</g>
</svg>
